# xmcd
#
# Track frame offsets:
#	150
#	13937
#	28590
#	50152
#	60585
#	78527
#	94815
#	117897
#	132227
#	149225
#	161597
#	176097
#
# Disc length: 2562 seconds
#
# Revision: 1
# Processed by: cddbd v1.4PL0 Copyright (c) Steve Scherf et al.
# Submitted via: EasyCDDAExtractor 6.2.0.3
#
DISCID=ae0a000c
DTITLE=Trailer Bride - Hope Is A Thing With Feathers
DYEAR=2003
DGENRE=Country
TTITLE0=Silk Hope Road
TTITLE1=Hope Is A Thing With Feathers
TTITLE2=Skinny White Girl
TTITLE3=Mach 1
TTITLE4=Destiny
TTITLE5=Lightning
TTITLE6=Vagabond Motel
TTITLE7=Quickstep
TTITLE8=Shiloh
TTITLE9=Drive With The Wind
TTITLE10=Waking Dream
TTITLE11=Mockingbird
EXTD=
EXTT0=
EXTT1=
EXTT2=
EXTT3=
EXTT4=
EXTT5=
EXTT6=
EXTT7=
EXTT8=
EXTT9=
EXTT10=
EXTT11=
PLAYORDER=
